<svg width="44" height="25" viewBox="0 0 44 25" fill="none" xmlns="http://www.w3.org/2000/svg">
<rect width="44" height="24" rx="12" fill="white"/>
<g filter="url(#filter0_d_218_282)">
<circle cx="32" cy="12" r="11" fill="#E90000"/>
</g>
<path d="M26 9.99999V14H28.6667L32 17.3333V6.66665L28.6667 9.99999H26ZM35 12C35 10.82 34.32 9.80665 33.3333 9.31332V14.68C34.32 14.1933 35 13.18 35 12ZM33.3333 6.15332V7.52665C35.26 8.09999 36.6667 9.88665 36.6667 12C36.6667 14.1133 35.26 15.9 33.3333 16.4733V17.8467C36.0067 17.24 38 14.8533 38 12C38 9.14665 36.0067 6.75999 33.3333 6.15332Z" fill="white"/>
<defs>
<filter id="filter0_d_218_282" x="20" y="1" width="24" height="24" filterUnits="userSpaceOnUse" color-interpolation-filters="sRGB">
<feFlood flood-opacity="0" result="BackgroundImageFix"/>
<feColorMatrix in="SourceAlpha" type="matrix" values="0 0 0 0 0 0 0 0 0 0 0 0 0 0 0 0 0 0 127 0" result="hardAlpha"/>
<feOffset dy="1"/>
<feGaussianBlur stdDeviation="0.5"/>
<feComposite in2="hardAlpha" operator="out"/>
<feColorMatrix type="matrix" values="0 0 0 0 0.270833 0 0 0 0 0.00789928 0 0 0 0 0.00789928 0 0 0 0.3 0"/>
<feBlend mode="normal" in2="BackgroundImageFix" result="effect1_dropShadow_218_282"/>
<feBlend mode="normal" in="SourceGraphic" in2="effect1_dropShadow_218_282" result="shape"/>
</filter>
</defs>
</svg>
